# xmcd
#
# Track frame offsets:
#	150
#	17190
#	34500
#	52821
#	67490
#	83511
#	100753
#	119057
#	134946
#	153571
#	166369
#	182011
#	198563
#	217261
#	228193
#	240628
#	252312
#	265528
#	284501
#
# Disc length: 4012 seconds
#
# Revision: 1
# Processed by: cddbd v1.5.2PL0 Copyright (c) Steve Scherf et al.
# Submitted via: audiograbber 1.83.01
#
DISCID=1b0faa13
DTITLE=Various Artist - CDX 457 Sept. 2008
DYEAR=2008
DGENRE=Country
TTITLE0=Eli Young Band - Always The Love Songs
TTITLE1=John Michael Montgomery - Forever
TTITLE2=Waylon Jennings (feat. the .357's) - Lonesome On'ry And Mean
TTITLE3=Sara Evans - Low
TTITLE4=Julianne Hough - My Hallelujah 
TTITLE5=Keith Anderson - Somebody Needs A Hug
TTITLE6=Brad Paisley (feat. Keith Urban) - Start A Band
TTITLE7=James House - American
TTITLE8=Jerry McComb - Cold
TTITLE9=Duane Michaels - (If It Weren't  For Country Music) I'd Go Crazy
TTITLE10=Deanna Cox - I'm So Lonesome I Could Cry
TTITLE11=Becky Schlegel - Jenny
TTITLE12=Dale Oakley - Just Thought You Should Know
TTITLE13=Ivy Raye - Living On Credit
TTITLE14=Aaron Watson - Love Makin' Song
TTITLE15=Julie Ingram - Make Me Feel Like A Woman
TTITLE16=Ray Scott - Sometimes The Bottle Hits Ya Back
TTITLE17=Eileen Carey - That Was Her This Is Now
TTITLE18=Neil Carswell - Altar Call
EXTD=Fixed Typos and additional Information
EXTT0=
EXTT1=
EXTT2=
EXTT3=
EXTT4=
EXTT5=
EXTT6=
EXTT7=
EXTT8=
EXTT9=
EXTT10=
EXTT11=
EXTT12=
EXTT13=
EXTT14=
EXTT15=
EXTT16=
EXTT17=
EXTT18=
PLAYORDER=
